Results
version=1
nRows=13
nColumns=38
inDegrees=yes
endheader
time	pelvis_tilt	pelvis_list	pelvis_rotation	pelvis_tx	pelvis_ty	pelvis_tz	hip_flexion_r	hip_adduction_r	hip_rotation_r	knee_angle_r	ankle_angle_r	subtalar_angle_r	mtp_angle_r	hip_flexion_l	hip_adduction_l	hip_rotation_l	knee_angle_l	ankle_angle_l	subtalar_angle_l	mtp_angle_l	lumbar_extension	lumbar_bending	lumbar_rotation	arm_flex_r	arm_add_r	arm_rot_r	elbow_flex_r	pro_sup_r	wrist_flex_r	wrist_dev_r	arm_flex_l	arm_add_l	arm_rot_l	elbow_flex_l	pro_sup_l	wrist_flex_l	wrist_dev_l
      2.50000000	     -2.55323525	     -2.24910416	     -2.38271367	      0.89621608	      1.06055796	     -0.30263969	     21.52384636	      3.46736114	      1.21700860	    -64.99285801	     12.54809679	      0.00000000	      0.00000000	     -6.58077006	      3.48184401	     11.07516600	    -17.10317986	     15.40988706	      0.00000000	      0.00000000	     -6.22221542	      2.86518927	    -11.62419827	    -40.04259072	    -15.10365833	     -0.03080186	    114.94135137	     64.12974846	      0.00000000	      0.00000000	    -29.08127665	    -22.59460095	     -9.03113648	    126.61346346	     66.39125066	      0.00000000	      0.00000000
      2.50400000	     -2.81113926	     -2.51559634	     -2.30146045	      0.89661684	      1.06300722	     -0.30239294	     21.96645691	      3.75865472	      0.81022477	    -63.57513036	     12.70838778	      0.00000000	      0.00000000	     -7.14527669	      3.07210940	     11.03498373	    -16.26462973	     14.03171984	      0.00000000	      0.00000000	     -5.92890694	      3.23448524	    -11.93343099	    -40.55996944	    -15.04524239	     -0.25560447	    115.30435683	     64.23834591	      0.00000000	      0.00000000	    -29.15121172	    -22.73160614	     -9.07510590	    127.02998549	     66.34137530	      0.00000000	      0.00000000
      2.50800000	     -2.85310036	     -2.92484120	     -2.14230167	      0.89723607	      1.06582206	     -0.30212103	     22.13521637	      4.19152529	      0.36412601	    -62.08352808	     12.57931334	      0.00000000	      0.00000000	     -7.98206518	      2.49409863	     11.01150791	    -15.38408595	     12.77361308	      0.00000000	      0.00000000	     -5.87189496	      3.75261774	    -12.21841651	    -41.10251779	    -14.87684102	     -0.63634947	    115.58621547	     64.60533083	      0.00000000	      0.00000000	    -29.10421232	    -22.88349427	     -9.04863136	    127.45126851	     66.09320137	      0.00000000	      0.00000000
      2.51200000	     -3.19127696	     -3.16417492	     -2.09278734	      0.89756257	      1.06808492	     -0.30168800	     22.66641713	      4.51794213	      0.16161561	    -60.67757694	     12.48061170	      0.00000000	      0.00000000	     -8.39736430	      2.08793672	     10.73483106	    -14.64130576	     11.41605704	      0.00000000	      0.00000000	     -5.49364177	      4.04768745	    -12.47568752	    -41.58785112	    -14.80804757	     -0.74988663	    115.78170065	     64.69742339	      0.00000000	      0.00000000	    -29.22078687	    -23.07973154	     -9.10813133	    127.90605757	     66.07217454	      0.00000000	      0.00000000
      2.51600000	     -3.47738624	     -3.37164762	     -2.06374832	      0.89806116	      1.07050688	     -0.30144364	     23.07384429	      4.76591663	     -0.14065864	    -59.11990151	     12.41058314	      0.00000000	      0.00000000	     -8.86627755	      1.80019581	     10.51584021	    -13.95158210	     10.11137921	      0.00000000	      0.00000000	     -5.15801432	      4.34543118	    -12.69074519	    -42.07998390	    -14.75998155	     -0.89382065	    115.96972538	     64.78569207	      0.00000000	      0.00000000	    -29.29914363	    -23.18952222	     -9.13776857	    128.30663099	     66.05570112	      0.00000000	      0.00000000
      2.52000000	     -3.56143176	     -3.72140396	     -1.98881849	      0.89873106	      1.07317140	     -0.30122185	     23.18803782	      5.12902492	     -0.57058110	    -57.39107294	     12.27441695	      0.00000000	      0.00000000	     -9.57449768	      1.30628282	     10.34057062	    -13.18519243	      8.74893647	      0.00000000	      0.00000000	     -5.05190071	      4.80828058	    -12.85168853	    -42.56432185	    -14.57300511	     -1.29651807	    116.17325616	     65.04985254	      0.00000000	      0.00000000	    -29.23789886	    -23.31501508	     -9.04926724	    128.64269405	     65.92964176	      0.00000000	      0.00000000
      2.52400000	     -3.88664578	     -3.86201296	     -1.95945503	      0.89913963	      1.07531451	     -0.30090948	     23.59598760	      5.30436689	     -0.93890678	    -55.67635413	     12.16650878	      0.00000000	      0.00000000	     -9.92733966	      1.04496766	     10.16684358	    -12.54434301	      7.24597923	      0.00000000	      0.00000000	     -4.68766800	      5.02063034	    -13.01557785	    -43.02936968	    -14.48592713	     -1.42366606	    116.34014993	     65.11095040	      0.00000000	      0.00000000	    -29.31624430	    -23.48289812	     -9.07758214	    129.09563129	     65.90700839	      0.00000000	      0.00000000
      2.52800000	     -4.01291639	     -4.17830108	     -1.83815893	      0.89992170	      1.07783574	     -0.30082910	     23.69070788	      5.62518339	     -1.34364847	    -53.87314087	     11.89548349	      0.00000000	      0.00000000	    -10.54012890	      0.59146543	     10.09485667	    -11.83684842	      5.76751679	      0.00000000	      0.00000000	     -4.49192905	      5.44839220	    -13.18934250	    -43.49446011	    -14.30967588	     -1.84218075	    116.46775019	     65.29838190	      0.00000000	      0.00000000	    -29.27731086	    -23.59186435	     -8.97163273	    129.36341144	     65.83378816	      0.00000000	      0.00000000
      2.53200000	     -4.30469245	     -4.31574363	     -1.79697543	      0.90050995	      1.07990956	     -0.30046087	     24.00599846	      5.75826997	     -1.76778077	    -52.12553456	     11.80339209	      0.00000000	      0.00000000	    -10.86542217	      0.32472262	      9.79766859	    -11.28713969	      4.34328042	      0.00000000	      0.00000000	     -4.14400277	      5.64160721	    -13.34965249	    -43.93108033	    -14.17333757	     -1.99378217	    116.61591750	     65.35409161	      0.00000000	      0.00000000	    -29.37422617	    -23.74932986	     -8.98841496	    129.79642397	     65.82681936	      0.00000000	      0.00000000
      2.53600000	     -4.54886379	     -4.51385388	     -1.74532297	      0.90109644	      1.08208053	     -0.30025055	     24.22091337	      5.99580887	     -2.04010745	    -50.31873559	     11.62663262	      0.00000000	      0.00000000	    -11.26341231	      0.00979549	      9.66827090	    -10.70343832	      2.83595131	      0.00000000	      0.00000000	     -3.84410178	      5.92040573	    -13.47370017	    -44.36255018	    -14.05099806	     -2.27345346	    116.74431786	     65.40680076	      0.00000000	      0.00000000	    -29.40116354	    -23.84275944	     -8.94444091	    130.16104833	     65.82249491	      0.00000000	      0.00000000
      2.54000000	     -4.57294101	     -4.75705254	     -1.66215475	      0.90184574	      1.08449222	     -0.30003126	     24.11907213	      6.28169124	     -2.32166275	    -48.35416744	     11.31639070	      0.00000000	      0.00000000	    -11.88224612	     -0.35287362	      9.54218378	    -10.15317609	      1.38861372	      0.00000000	      0.00000000	     -3.79773302	      6.25332336	    -13.49594164	    -44.81002975	    -13.76636064	     -2.73045084	    116.81720087	     65.56974209	      0.00000000	      0.00000000	    -29.27761815	    -24.03084878	     -8.72278447	    130.38963212	     65.83310491	      0.00000000	      0.00000000
      2.54400000	     -4.85285429	     -4.82720598	     -1.59362345	      0.90249135	      1.08644947	     -0.29979796	     24.31003490	      6.40506788	     -2.54571126	    -46.42487547	     11.23371574	      0.00000000	      0.00000000	    -12.13317693	     -0.53947005	      9.55471392	     -9.74734297	     -0.18660045	      0.00000000	      0.00000000	     -3.43287393	      6.37946367	    -13.62714737	    -45.18890923	    -13.61580861	     -2.90101268	    116.93546780	     65.59850980	      0.00000000	      0.00000000	    -29.35781682	    -24.15895114	     -8.67021390	    130.76046495	     65.83731699	      0.00000000	      0.00000000
      2.54800000	     -4.84529724	     -5.03006455	     -1.43887198	      0.90343007	      1.08872168	     -0.29979706	     24.09849372	      6.60071212	     -2.96878479	    -44.34118111	     10.89332922	      0.00000000	      0.00000000	    -12.74082894	     -0.87309813	      9.45355143	     -9.24930708	     -1.61865630	      0.00000000	      0.00000000	     -3.36965522	      6.67904789	    -13.65654090	    -45.63631275	    -13.29695608	     -3.44597017	    117.01006322	     65.73861389	      0.00000000	      0.00000000	    -29.18294511	    -24.35488388	     -8.44454612	    130.99512129	     65.86975114	      0.00000000	      0.00000000
